<?xml version="1.0" encoding="utf-8"?>
<!-- Generator: Adobe Illustrator 23.0.0, SVG Export Plug-In . SVG Version: 6.00 Build 0)  -->
<svg version="1.1" id="Capa_1" xmlns="http://www.w3.org/2000/svg" xmlns:xlink="http://www.w3.org/1999/xlink" x="0px" y="0px"
	 viewBox="0 0 511 511" style="enable-background:new 0 0 511 511;" xml:space="preserve">
<style type="text/css">
	.st0{fill:#64042E;}
</style>
<g>
	<path class="st0" d="M39.5,103c2,0,3.9-0.8,5.3-2.2c1.4-1.4,2.2-3.3,2.2-5.3s-0.8-3.9-2.2-5.3c-1.4-1.4-3.3-2.2-5.3-2.2
		s-3.9,0.8-5.3,2.2c-1.4,1.4-2.2,3.3-2.2,5.3s0.8,3.9,2.2,5.3C35.6,102.2,37.5,103,39.5,103z"/>
	<path class="st0" d="M63.5,103c2,0,3.9-0.8,5.3-2.2c1.4-1.4,2.2-3.3,2.2-5.3s-0.8-3.9-2.2-5.3c-1.4-1.4-3.3-2.2-5.3-2.2
		c-2,0-3.9,0.8-5.3,2.2c-1.4,1.4-2.2,3.3-2.2,5.3s0.8,3.9,2.2,5.3C59.6,102.2,61.5,103,63.5,103z"/>
	<path class="st0" d="M87.5,103c2,0,3.9-0.8,5.3-2.2c1.4-1.4,2.2-3.3,2.2-5.3s-0.8-3.9-2.2-5.3c-1.4-1.4-3.3-2.2-5.3-2.2
		s-3.9,0.8-5.3,2.2c-1.4,1.4-2.2,3.3-2.2,5.3s0.8,3.9,2.2,5.3C83.6,102.2,85.5,103,87.5,103z"/>
	<path class="st0" d="M119.5,103h304c4.1,0,7.5-3.4,7.5-7.5s-3.4-7.5-7.5-7.5h-304c-4.1,0-7.5,3.4-7.5,7.5S115.4,103,119.5,103z"/>
	<path class="st0" d="M455.5,103h16c4.1,0,7.5-3.4,7.5-7.5s-3.4-7.5-7.5-7.5h-16c-4.1,0-7.5,3.4-7.5,7.5S451.4,103,455.5,103z"/>
	<path class="st0" d="M439.5,168h-144c-13,0-23.5,10.5-23.5,23.5v0.5h-8.5c-13,0-23.5,10.5-23.5,23.5V280h-17v-24.5
		c0-13-10.5-23.5-23.5-23.5h-128c-13,0-23.5,10.5-23.5,23.5v64c0,13,10.5,23.5,23.5,23.5h128c13,0,23.5-10.5,23.5-23.5V295h17v64.5
		c0,13,10.5,23.5,23.5,23.5h8.5v0.5c0,13,10.5,23.5,23.5,23.5h144c13,0,23.5-10.5,23.5-23.5v-16c0-13-10.5-23.5-23.5-23.5h-144
		c-13,0-23.5,10.5-23.5,23.5v0.5h-8.5c-4.7,0-8.5-3.8-8.5-8.5V295h17v0.5c0,13,10.5,23.5,23.5,23.5h144c13,0,23.5-10.5,23.5-23.5
		v-16c0-13-10.5-23.5-23.5-23.5h-144c-13,0-23.5,10.5-23.5,23.5v0.5h-17v-64.5c0-4.7,3.8-8.5,8.5-8.5h8.5v0.5
		c0,13,10.5,23.5,23.5,23.5h144c13,0,23.5-10.5,23.5-23.5v-16C463,178.5,452.5,168,439.5,168z M208,319.5c0,4.7-3.8,8.5-8.5,8.5
		h-128c-4.7,0-8.5-3.8-8.5-8.5v-64c0-4.7,3.8-8.5,8.5-8.5h128c4.7,0,8.5,3.8,8.5,8.5V319.5z M287,367.5c0-4.7,3.8-8.5,8.5-8.5h144
		c4.7,0,8.5,3.8,8.5,8.5v16c0,4.7-3.8,8.5-8.5,8.5h-144c-4.7,0-8.5-3.8-8.5-8.5V367.5z M287,279.5c0-4.7,3.8-8.5,8.5-8.5h144
		c4.7,0,8.5,3.8,8.5,8.5v16c0,4.7-3.8,8.5-8.5,8.5h-144c-4.7,0-8.5-3.8-8.5-8.5V279.5z M448,207.5c0,4.7-3.8,8.5-8.5,8.5h-144
		c-4.7,0-8.5-3.8-8.5-8.5v-16c0-4.7,3.8-8.5,8.5-8.5h144c4.7,0,8.5,3.8,8.5,8.5V207.5z"/>
	<path class="st0" d="M471.5,56h-432C17.7,56,0,73.7,0,95.5v320C0,437.3,17.7,455,39.5,455h432c21.8,0,39.5-17.7,39.5-39.5v-320
		C511,73.7,493.3,56,471.5,56z M39.5,71h432C485,71,496,82,496,95.5V120H15V95.5C15,82,26,71,39.5,71z M471.5,440h-432
		C26,440,15,429,15,415.5V135h481v280.5C496,429,485,440,471.5,440z"/>
</g>
</svg>
